HIERARCHY
ROOT root
{
	OFFSET 0.000000 0.000000 0.000000
	CHANNELS 6 Xposition Yposition Zposition Zrotation Yrotation Xrotation
	JOINT lhip
	{
		OFFSET 0.058581 -0.082280 -0.017664
		CHANNELS 3 Zrotation Yrotation Xrotation
		JOINT lknee
		{
			OFFSET 0.043451 -0.386469 0.008037
			CHANNELS 3 Zrotation Yrotation Xrotation
			JOINT lankle
			{
				OFFSET -0.014790 -0.426874 -0.037428
				CHANNELS 3 Zrotation Yrotation Xrotation
				JOINT ltoe
				{
					OFFSET 0.041054 -0.060286 0.122042
					CHANNELS 3 Zrotation Yrotation Xrotation
					End Site
					{
						OFFSET 0.000000 0.000000 0.000000
					}
				}
			}
		}
	}
	JOINT rhip
	{
		OFFSET -0.060310 -0.090513 -0.013543
		CHANNELS 3 Zrotation Yrotation Xrotation
		JOINT rknee
		{
			OFFSET -0.043257 -0.383688 -0.004843
			CHANNELS 3 Zrotation Yrotation Xrotation
			JOINT rankle
			{
				OFFSET 0.019056 -0.420046 -0.034562
				CHANNELS 3 Zrotation Yrotation Xrotation
				JOINT rtoe
				{
					OFFSET -0.034840 -0.062106 0.130323
					CHANNELS 3 Zrotation Yrotation Xrotation
					End Site
					{
						OFFSET 0.000000 0.000000 0.000000
					}
				}
			}
		}
	}
	JOINT lowerback
	{
		OFFSET 0.004439 0.124404 -0.038385
		CHANNELS 3 Zrotation Yrotation Xrotation
		JOINT upperback
		{
			OFFSET 0.004488 0.137956 0.026820
			CHANNELS 3 Zrotation Yrotation Xrotation
			JOINT chest
			{
				OFFSET -0.002265 0.056032 0.002855
				CHANNELS 3 Zrotation Yrotation Xrotation
				JOINT lowerneck
				{
					OFFSET -0.013390 0.211636 -0.033468
					CHANNELS 3 Zrotation Yrotation Xrotation
					JOINT upperneck
					{
						OFFSET 0.010113 0.088937 0.050410
						CHANNELS 3 Zrotation Yrotation Xrotation
						End Site
						{
							OFFSET 0.000000 0.000000 0.000000
						}
					}
				}
				JOINT lclavicle
				{
					OFFSET 0.071702 0.114000 -0.018898
					CHANNELS 3 Zrotation Yrotation Xrotation
					JOINT lshoulder
					{
						OFFSET 0.122921 0.045205 -0.019046
						CHANNELS 3 Zrotation Yrotation Xrotation
						JOINT lelbow
						{
							OFFSET 0.255332 -0.015649 -0.022946
							CHANNELS 3 Zrotation Yrotation Xrotation
							JOINT lwrist
							{
								OFFSET 0.265709 0.012698 -0.007375
								CHANNELS 3 Zrotation Yrotation Xrotation
								End Site
								{
									OFFSET 0.000000 0.000000 0.000000
								}
							}
						}
					}
				}
				JOINT rclavicle
				{
					OFFSET -0.082954 0.112472 -0.023707
					CHANNELS 3 Zrotation Yrotation Xrotation
					JOINT rshoulder
					{
						OFFSET -0.113228 0.046853 -0.008472
						CHANNELS 3 Zrotation Yrotation Xrotation
						JOINT relbow
						{
							OFFSET -0.260127 -0.014369 -0.031269
							CHANNELS 3 Zrotation Yrotation Xrotation
							JOINT rwrist
							{
								OFFSET -0.269108 0.006794 -0.006027
								CHANNELS 3 Zrotation Yrotation Xrotation
								End Site
								{
									OFFSET 0.000000 0.000000 0.000000
								}
							}
						}
					}
				}
			}
		}
	}
}
MOTION
Frames: 9
Frame Time: 0.033333
0.047634 0.538850 0.995823 -3.117330 -0.420736 83.338233 8.820032 7.404000 3.950934 -2.750528 7.619161 11.438485 0.549016 14.406252 -20.306938 0.000000 -0.000000 0.000000 -9.399206 -6.890879 2.307729 0.467372 -3.159026 11.453983 5.886992 -3.290238 -10.130461 0.000000 -0.000000 0.000000 0.847421 0.914502 1.818657 0.111516 -1.761556 3.133779 -2.904018 -0.139125 0.418157 3.219414 3.439970 0.156361 -2.668779 -2.616303 19.652791 -36.425202 -0.984197 2.511471 -39.598124 -7.928089 11.183316 7.387305 -53.225188 10.103455 11.111259 -12.631885 10.998231 37.340339 4.921328 5.285434 40.698171 6.921361 16.344597 -5.909946 49.674575 6.499693 -4.046452 8.611982 1.619983 
0.047518 0.538694 0.995847 -3.172516 -0.345737 83.457283 8.866466 7.173130 3.922283 -2.847228 7.505925 11.331779 0.546937 14.789439 -20.358746 0.000000 -0.000000 0.000000 -9.309243 -6.807790 2.275923 0.606158 -2.674543 11.302706 6.157487 -3.882885 -10.160494 0.000000 -0.000000 0.000000 0.847051 0.971297 1.779080 0.139080 -1.892089 2.823841 -2.892686 -0.014698 0.840916 3.482071 3.443457 -1.031306 -2.572007 -3.031432 20.342661 -35.937879 -1.012587 2.770098 -40.045620 -7.950642 10.912371 6.893349 -53.038738 11.228215 12.400708 -13.451455 10.264647 37.297179 4.906183 5.280554 41.129569 7.140182 16.119453 -7.878046 50.760517 6.479910 -8.896486 12.191012 5.394918 
0.047366 0.538662 0.996083 -3.225586 -0.320389 83.492400 8.869149 7.068402 3.983578 -2.839126 7.617994 11.162011 0.628129 14.840726 -20.272640 0.000000 -0.000000 0.000000 -9.286338 -6.746076 2.299969 0.623362 -2.710423 11.200569 6.154648 -3.858550 -10.115630 0.000000 -0.000000 0.000000 0.831551 0.979122 1.827930 0.135591 -1.925015 2.768686 -2.888682 0.009471 0.878756 3.655119 3.384890 -1.440267 -2.454168 -3.286145 20.113759 -35.739637 -0.871522 2.784840 -40.144726 -7.898983 10.826435 6.489554 -53.021276 11.802622 12.237591 -13.863656 9.996673 37.034561 4.723822 5.193901 41.624904 7.268568 16.104289 -8.225738 51.045196 7.002328 -9.879441 13.065534 6.439642 
0.047184 0.538647 0.996148 -3.259855 -0.275492 83.654644 8.883043 6.933845 3.904213 -2.814634 7.787392 11.003192 0.613852 14.863169 -20.185820 0.000000 -0.000000 0.000000 -9.229199 -6.668751 2.274249 0.652082 -2.835222 10.928251 6.155402 -3.825822 -9.949802 0.000000 -0.000000 0.000000 0.843139 0.977213 1.763869 0.120989 -1.946744 2.736505 -2.914794 0.037213 0.837950 3.732183 3.496050 -1.681470 -2.056528 -3.392233 19.382567 -35.456671 -0.754661 2.668231 -40.399251 -7.835017 10.933598 6.390502 -52.833247 12.251508 11.861429 -13.835207 9.781927 36.871163 4.568859 5.134362 41.968321 7.237350 16.240686 -8.191776 51.110882 7.449019 -9.575649 13.038097 6.208088 
0.047006 0.538815 0.996169 -3.317362 -0.249092 83.810053 8.907474 6.938785 3.778345 -2.821927 7.836651 10.938578 0.618920 14.868652 -20.132612 0.000000 -0.000000 0.000000 -9.183655 -6.647399 2.200886 0.682694 -2.852887 10.745382 6.116712 -3.815221 -9.840435 0.000000 -0.000000 0.000000 0.864400 0.966404 1.646574 0.113882 -1.919534 2.720456 -2.908026 0.074783 0.818336 3.773787 3.470832 -1.886579 -1.989979 -3.394228 19.118619 -35.412022 -0.766953 2.655122 -40.464919 -7.789704 10.942938 6.375794 -52.738219 12.368434 11.794308 -13.784741 9.752964 36.777035 4.517462 5.154581 42.101339 7.181461 16.248677 -8.107043 51.096566 7.679381 -9.589084 12.942679 5.939424 
0.046729 0.539127 0.996156 -3.407921 -0.205495 84.054814 8.952300 6.974249 3.537373 -2.834486 7.914557 10.893158 0.593667 14.854099 -20.044705 0.000000 -0.000000 0.000000 -9.061251 -6.630152 2.063871 0.673574 -2.821357 10.447922 6.052142 -3.852764 -9.711487 0.000000 -0.000000 0.000000 0.889243 0.976595 1.368265 0.128112 -1.915541 2.819051 -2.860290 0.120962 0.762920 3.665903 3.450903 -1.998783 -1.902753 -3.390119 18.705119 -35.412260 -0.890226 2.801917 -40.581009 -7.772249 10.941340 6.578476 -52.622666 12.200618 12.063794 -13.710162 9.646656 36.665939 4.535083 5.288978 42.170997 7.205963 16.114619 -7.988333 51.048655 7.852617 -9.828504 12.791059 5.620420 
0.046511 0.539339 0.996038 -3.455331 -0.208815 84.214735 8.957458 7.008311 3.395745 -2.833034 8.007288 10.856293 0.603612 14.806356 -19.991779 0.000000 -0.000000 0.000000 -9.030411 -6.627561 1.971985 0.665284 -2.814936 10.291038 6.015461 -3.824512 -9.663683 0.000000 -0.000000 0.000000 0.905776 0.961649 1.241160 0.112804 -1.932869 2.845671 -2.847839 0.144287 0.697703 3.600715 3.428008 -2.039908 -1.860198 -3.344777 18.545693 -35.338529 -0.918516 2.830226 -40.795137 -7.723638 10.991020 6.742229 -52.617380 12.012382 12.140843 -13.611255 9.580515 36.582490 4.511649 5.362346 42.245675 7.253041 16.043140 -7.944995 51.017266 7.843945 -9.842501 12.758895 5.517473 
0.046318 0.539716 0.996028 -3.513077 -0.231991 84.286287 8.935574 6.965468 3.334618 -2.826682 8.115488 10.841169 0.618217 14.813776 -19.931180 0.000000 -0.000000 0.000000 -9.034074 -6.560753 1.851909 0.678987 -2.842821 10.311886 5.945272 -3.839346 -9.672328 0.000000 -0.000000 0.000000 0.934351 0.942246 1.293016 0.080165 -1.923984 2.773767 -2.888544 0.135291 0.644185 3.626721 3.436034 -2.057236 -1.813333 -3.249944 18.421619 -35.342855 -0.849437 2.825674 -40.848782 -7.725940 11.009877 6.797993 -52.692160 12.035271 11.947304 -13.703903 9.608010 36.569561 4.504430 5.374391 42.254398 7.212343 16.071214 -7.998336 50.992217 7.837616 -9.756775 12.804288 5.582510 
0.046108 0.540145 0.996012 -3.571581 -0.268053 84.350240 8.905829 6.930448 3.248758 -2.847890 8.155510 10.878408 0.619642 14.873229 -19.943597 0.000000 -0.000000 0.000000 -9.052257 -6.549821 1.639291 0.676343 -2.860120 10.512827 5.909234 -3.799106 -9.747521 0.000000 -0.000000 0.000000 0.999661 0.897359 1.388028 0.020450 -1.904179 2.660932 -2.959608 0.119559 0.649977 3.584657 3.381356 -2.116843 -1.806289 -3.263645 18.301959 -35.409735 -0.785088 2.747181 -40.829709 -7.676042 11.035639 6.875907 -52.837095 12.015975 11.931450 -13.629553 9.569815 36.538796 4.534254 5.314032 42.243216 7.150831 16.140005 -7.960294 51.030662 7.888879 -9.741056 12.862485 5.592237 
